<?xml version="1.0" encoding="UTF-8" standalone="no"?>
<!DOCTYPE svg PUBLIC "-//W3C//DTD SVG 1.1//EN"
 "http://www.w3.org/Graphics/SVG/1.1/DTD/svg11.dtd">
<!-- Generated by graphviz version 12.1.1 (20240910.0053)
 -->
<!-- Title: INFRA Pages: 1 -->
<svg width="183pt" height="188pt"
 viewBox="0.00 0.00 182.70 188.00" xmlns="http://www.w3.org/2000/svg" xmlns:xlink="http://www.w3.org/1999/xlink">
<g id="graph0" class="graph" transform="scale(1 1) rotate(0) translate(4 184)">
<title>INFRA</title>
<polygon fill="white" stroke="none" points="-4,4 -4,-184 178.7,-184 178.7,4 -4,4"/>
<!-- MySQL Database -->
<g id="node1" class="node">
<title>MySQL Database</title>
<path fill="#ffcfb3" stroke="black" stroke-width="2" d="M174.7,-65.45C174.7,-69.07 135.55,-72 87.35,-72 39.15,-72 0,-69.07 0,-65.45 0,-65.45 0,-6.55 0,-6.55 0,-2.93 39.15,0 87.35,0 135.55,0 174.7,-2.93 174.7,-6.55 174.7,-6.55 174.7,-65.45 174.7,-65.45"/>
<path fill="none" stroke="black" stroke-width="2" d="M174.7,-65.45C174.7,-61.84 135.55,-58.91 87.35,-58.91 39.15,-58.91 0,-61.84 0,-65.45"/>
<text text-anchor="middle" x="87.35" y="-40.2" font-family="Arial" font-size="14.00">MySQL Database</text>
<text text-anchor="middle" x="87.35" y="-23.4" font-family="Arial" font-size="14.00">(AWS::RDS::DBInstance)</text>
</g>
<!-- Application Server -->
<g id="node2" class="node">
<title>Application Server</title>
<path fill="#b7e0ff" stroke="black" stroke-width="2" d="M149.47,-180C149.47,-180 25.23,-180 25.23,-180 19.23,-180 13.23,-174 13.23,-168 13.23,-168 13.23,-120 13.23,-120 13.23,-114 19.23,-108 25.23,-108 25.23,-108 149.47,-108 149.47,-108 155.47,-108 161.47,-114 161.47,-120 161.47,-120 161.47,-168 161.47,-168 161.47,-174 155.47,-180 149.47,-180"/>
<text text-anchor="middle" x="87.35" y="-148.2" font-family="Arial" font-size="14.00">Application Server</text>
<text text-anchor="middle" x="87.35" y="-131.4" font-family="Arial" font-size="14.00">(AWS::ECS::Service)</text>
</g>
<!-- Application Server&#45;&gt;MySQL Database -->
<g id="edge1" class="edge">
<title>Application Server&#45;&gt;MySQL Database</title>
<path fill="none" stroke="black" d="M87.35,-107.7C87.35,-99.93 87.35,-91.57 87.35,-83.43"/>
<polygon fill="black" stroke="black" points="90.85,-83.66 87.35,-73.66 83.85,-83.66 90.85,-83.66"/>
</g>
</g>
</svg>
